<svg width="20" height="16" viewBox="0 0 20 16" fill="none" xmlns="http://www.w3.org/2000/svg">
<path d="M20.0001 8.00028C20.0001 8.55328 19.5531 9.00028 19.0001 9.00028H3.4141L8.70707 14.2933C9.09807 14.6842 9.09807 15.3163 8.70707 15.7073C8.51207 15.9023 8.2561 16.0003 8.0001 16.0003C7.7441 16.0003 7.48813 15.9023 7.29313 15.7073L0.293128 8.70731C-0.0978721 8.31631 -0.0978721 7.68425 0.293128 7.29325L7.29313 0.29325C7.68413 -0.09775 8.31607 -0.09775 8.70707 0.29325C9.09807 0.68425 9.09807 1.31631 8.70707 1.70731L3.4141 7.00028H19.0001C19.5531 7.00028 20.0001 7.44728 20.0001 8.00028Z" fill="#00A1B9"/>
</svg>
