<svg width="19" height="14" viewBox="0 0 19 14" fill="none" xmlns="http://www.w3.org/2000/svg">
<path d="M9.5 0C2.2876 0 0.120002 6.617 0.100159 6.684L0 7L0.0992144 7.316C0.120002 7.383 2.2876 14 9.5 14C16.7124 14 18.88 7.383 18.8998 7.316L19 7L18.9008 6.684C18.88 6.617 16.7124 0 9.5 0ZM9.5 11C7.41556 11 5.72041 9.206 5.72041 7C5.72041 4.794 7.41556 3 9.5 3C11.5844 3 13.2796 4.794 13.2796 7C13.2796 9.206 11.5844 11 9.5 11Z" fill="#00A1B9"/>
<path d="M9.4999 5C8.47563 5 7.61011 5.916 7.61011 7C7.61011 8.084 8.47563 9 9.4999 9C10.5242 9 11.3897 8.084 11.3897 7C11.3897 5.916 10.5242 5 9.4999 5Z" fill="#00A1B9"/>
</svg>
