<svg width="20" height="18" viewBox="0 0 20 18" fill="none" xmlns="http://www.w3.org/2000/svg">
<path d="M19.0095 7.241C18.4667 6.344 17.5839 5.1291 16.3643 4.0391L18.6956 1.70707C19.0864 1.31607 19.0864 0.684006 18.6956 0.293006C18.3047 -0.0979941 17.6729 -0.0979941 17.282 0.293006L1.2873 16.293C0.896428 16.684 0.896428 17.3161 1.2873 17.7071C1.48224 17.9021 1.73815 18 1.99407 18C2.24998 18 2.5059 17.9021 2.70083 17.7071L5.235 15.1722C6.70452 16.0512 8.297 16.501 9.99244 16.501C14.8208 16.501 17.7099 12.901 19.0095 10.761C19.6593 9.67102 19.6593 8.331 19.0095 7.241ZM9.99244 13.501C9.11073 13.501 8.30102 13.2341 7.60825 12.7981L9.08075 11.324C9.36266 11.435 9.66854 11.501 9.99143 11.501C11.371 11.501 12.4906 10.381 12.4906 9.00101C12.4906 8.95101 12.4906 8.92113 12.4806 8.87113C12.3407 8.95113 12.1707 9.00101 11.9908 9.00101C11.8208 9.00101 11.6689 8.94806 11.5299 8.87406L13.7912 6.6121C14.2291 7.3061 14.49 8.12201 14.49 9.00101C14.4909 11.481 12.4716 13.501 9.99244 13.501ZM2.31498 12.6211C1.82514 12.0411 1.3753 11.411 0.985427 10.761C0.335641 9.67102 0.335632 8.331 0.975421 7.241C2.27499 5.101 5.17403 1.50101 9.99244 1.50101C10.9221 1.50101 11.8218 1.63093 12.7415 1.91093C12.9115 1.96093 13.0414 2.10103 13.0914 2.27103C13.1314 2.44103 13.0814 2.621 12.9515 2.741L11.0621 4.63114C10.7222 4.55114 10.3623 4.50101 9.99244 4.50101C7.51326 4.50101 5.49392 6.52101 5.49392 9.00101C5.49392 9.37101 5.53391 9.73109 5.62388 10.0811L3.05472 12.6509C2.95476 12.7509 2.83481 12.8011 2.69486 12.8011C2.69486 12.8011 2.68484 12.8011 2.67484 12.8011C2.53489 12.7911 2.40495 12.7311 2.31498 12.6211Z" fill="#00A1B9"/>
</svg>
