<svg width="32" height="24" viewBox="0 0 32 24" fill="none" xmlns="http://www.w3.org/2000/svg">
<g clip-path="url(#clip0_305_1472)">
<path d="M7.23507 23.8818V11.5821L3.42056 8.09242L0 6.15588V21.7112C0 22.9122 0.973057 23.8818 2.17057 23.8818H7.23507Z" fill="#4285F4"/>
<path d="M24.5991 23.8818H29.6636C30.8647 23.8818 31.8342 22.9086 31.8342 21.7112V6.15601L27.9599 8.37408L24.5991 11.5821V23.8818Z" fill="#34A853"/>
<path d="M7.23511 11.5821L6.71606 6.7763L7.23511 2.17664L15.9171 8.68822L24.5992 2.17664L25.1798 6.52797L24.5992 11.5821L15.9171 18.0937L7.23511 11.5821Z" fill="#EA4335"/>
<path d="M24.5991 2.17662V11.5821L31.8342 6.1559V3.26185C31.8342 0.577703 28.7701 -0.952453 26.6251 0.657288L24.5991 2.17662Z" fill="#FBBC04"/>
<path d="M0 6.15596L3.32754 8.65171L7.23507 11.5822V2.17668L5.20912 0.657345C3.06031 -0.95252 0 0.577759 0 3.26178V6.15583V6.15596Z" fill="#C5221F"/>
</g>
<defs>
<clipPath id="clip0_305_1472">
<rect width="31.8342" height="24" fill="white"/>
</clipPath>
</defs>
</svg>
