<svg width="44" height="44" viewBox="0 0 44 44" fill="none" xmlns="http://www.w3.org/2000/svg">
<rect width="44" height="44" rx="8" fill="#344054"/>
<path d="M22 4.58331C12.3934 4.58331 4.58337 12.3933 4.58337 22C4.58337 31.6066 12.3934 39.4166 22 39.4166C31.6067 39.4166 39.4167 31.6066 39.4167 22C39.4167 12.3933 31.6067 4.58331 22 4.58331ZM26.9684 23.3016L21.4684 28.8016C21.1017 29.1499 20.6434 29.3333 20.1667 29.3333C19.69 29.3333 19.2317 29.1499 18.865 28.8016C18.15 28.0866 18.15 26.9134 18.865 26.1984L23.0818 22L18.865 17.8016C18.15 17.0866 18.15 15.9134 18.865 15.1984C19.58 14.4834 20.7534 14.4834 21.4684 15.1984L26.9684 20.6984C27.6834 21.4134 27.6834 22.5866 26.9684 23.3016Z" fill="#F9FAFB"/>
</svg>
