<svg width="16" height="20" viewBox="0 0 16 20" fill="none" xmlns="http://www.w3.org/2000/svg">
<path d="M13 8.23999V5.25C13 2.49 10.76 0.25 8 0.25C5.24 0.25 3 2.49 3 5.25V8.23999C1.52 8.97999 0.5 10.49 0.5 12.25V15.25C0.5 17.73 2.52 19.75 5 19.75H11C13.48 19.75 15.5 17.73 15.5 15.25V12.25C15.5 10.49 14.48 8.97999 13 8.23999ZM9 14.25C9 14.8 8.55 15.25 8 15.25C7.45 15.25 7 14.8 7 14.25V13.25C7 12.7 7.45 12.25 8 12.25C8.55 12.25 9 12.7 9 13.25V14.25ZM11 7.75H5V5.25C5 3.6 6.35 2.25 8 2.25C9.65 2.25 11 3.6 11 5.25V7.75Z" fill="#00A1B9"/>
</svg>
